<?xml version="1.0" standalone="no"?><!DOCTYPE svg PUBLIC "-//W3C//DTD SVG 1.1//EN" "http://www.w3.org/Graphics/SVG/1.1/DTD/svg11.dtd"><svg t="1590630907767" class="icon" viewBox="0 0 1024 1024" version="1.1" xmlns="http://www.w3.org/2000/svg" p-id="2703" xmlns:xlink="http://www.w3.org/1999/xlink" width="200" height="200"><defs><style type="text/css"></style></defs><path d="M665.8 927.7H358.2c-86.7 0-157.3-70.4-157.3-156.9V284.2c0-22.1 17.9-40 40-40s40 17.9 40 40v486.6c0 42.4 34.7 76.9 77.3 76.9h307.6c42.6 0 77.3-34.5 77.3-76.9V284.2c0-22.1 17.9-40 40-40s40 17.9 40 40v486.6c-0.1 86.5-70.6 156.9-157.3 156.9z" p-id="2704"></path><path d="M897.1 320.8H126.9c-22.1 0-40-17.9-40-40s17.9-40 40-40h770.3c22.1 0 40 17.9 40 40s-18 40-40.1 40zM420.5 764.9c-22.1 0-40-17.9-40-40V447c0-22.1 17.9-40 40-40s40 17.9 40 40v277.9c0 22.1-17.9 40-40 40zM603.5 764.9c-22.1 0-40-17.9-40-40V447c0-22.1 17.9-40 40-40s40 17.9 40 40v277.9c0 22.1-17.9 40-40 40z" p-id="2705"></path><path d="M737.9 284.8c-15.7 0-30.5-9.2-36.9-24.6l-24.6-58.9c-6.2-15-20.8-24.6-37.1-24.6H384.8c-16.3 0-30.9 9.7-37.1 24.6L323 260.2c-6.4 15.3-21.3 24.6-36.9 24.6-5.1 0-10.4-1-15.4-3.1-20.4-8.5-30-31.9-21.5-52.3l24.6-58.9c18.7-44.8 62.3-73.8 110.9-73.8h254.5c48.7 0 92.2 29 110.9 73.8l24.6 58.9c8.5 20.4-1.1 43.8-21.5 52.3-4.9 2.1-10.2 3.1-15.3 3.1z" p-id="2706"></path></svg>