<?xml version="1.0" encoding="utf-8"?>
<!-- Generator: Adobe Illustrator 16.0.0, SVG Export Plug-In . SVG Version: 6.00 Build 0)  -->
<!DOCTYPE svg PUBLIC "-//W3C//DTD SVG 1.1//EN" "http://www.w3.org/Graphics/SVG/1.1/DTD/svg11.dtd">
<svg version="1.1" id="图层_1" xmlns="http://www.w3.org/2000/svg" xmlns:xlink="http://www.w3.org/1999/xlink" x="0px" y="0px"
	 width="21.943px" height="21.943px" viewBox="0 0 21.943 21.943" enable-background="new 0 0 21.943 21.943" xml:space="preserve">
<polygon fill="#22AC38" points="21.943,21.943 0,0 21.943,0 "/>
<g>
	<path fill="#FFFFFF" d="M10.209,6.63c0.652,0.231,1.295,0.389,1.927,0.471c0.281-0.538,0.693-1.118,1.238-1.74l-1.208-1.208
		l-0.768,0.768c0.36,0.251,0.734,0.511,1.124,0.777c-0.133,0.145-0.25,0.272-0.352,0.38c-0.387-0.263-0.771-0.522-1.15-0.779
		l-1.09,1.09C9.578,6.741,9.232,6.75,8.892,6.417C8.682,6.212,8.479,6,8.284,5.781C8.408,5.627,8.513,5.469,8.6,5.308
		c0.194,0.257,0.382,0.475,0.561,0.654C9.303,6.11,9.45,6.109,9.601,5.958l0.965-0.965c-0.367-0.246-0.73-0.489-1.089-0.728
		l0.306-0.491c0.371,0.269,0.76,0.546,1.168,0.834l0.835-0.835l-0.997-0.997l0.343-0.343l0.997,0.997l0.7-0.7
		c-0.277-0.212-0.571-0.442-0.886-0.69c0.096-0.14,0.186-0.297,0.27-0.473c0.831,0.689,1.577,1.25,2.239,1.683l-0.26,0.483
		c-0.275-0.192-0.586-0.416-0.932-0.672L12.509,3.81l1.188,1.187c0.357-0.4,0.791-0.881,1.303-1.442l0.39,0.39
		c-0.483,0.505-0.925,0.979-1.323,1.421l1.694,1.695l-0.343,0.343L13.743,5.73c-0.443,0.514-0.791,0.988-1.045,1.423
		c0.646,0.039,1.277-0.002,1.897-0.125l0.111,0.557c-0.761,0.115-1.514,0.139-2.261,0.072c-0.133,0.306-0.21,0.589-0.229,0.851
		c-0.027,0.343,0.017,0.573,0.135,0.691c0.063,0.064,0.163,0.061,0.292-0.014c0.204-0.117,0.51-0.333,0.918-0.649
		c0.071,0.189,0.145,0.353,0.223,0.492c-0.402,0.291-0.727,0.504-0.974,0.64c-0.319,0.176-0.595,0.15-0.83-0.079
		c-0.263-0.269-0.355-0.68-0.278-1.234c0.032-0.242,0.101-0.497,0.206-0.763c-0.589-0.088-1.174-0.232-1.755-0.434
		C10.193,6.957,10.212,6.781,10.209,6.63z M15.347,4.729l0.487-0.005c0.065,0.479,0.112,0.988,0.144,1.526l-0.57,0.004
		C15.41,5.744,15.39,5.235,15.347,4.729z"/>
	<path fill="#FFFFFF" d="M16.711,6.76l0.468,0.468c0.396-0.167,0.746-0.329,1.053-0.487l0.278,0.501
		c-0.333,0.139-0.647,0.264-0.941,0.375l0.927,0.927l-3.691,3.692l-0.37-0.371l0.362-0.362l-1.044-1.043l-0.395,0.395l-0.37-0.371
		L16.711,6.76z M14.1,10.112l1.044,1.043l1.173-1.173l-1.044-1.043L14.1,10.112z M17.614,9.565c0.752-0.169,1.571-0.498,2.459-0.982
		l0.291,0.486c-0.312,0.155-0.611,0.294-0.898,0.418l1.492,1.493c-1.626,1.552-2.656,2.522-3.093,2.908
		c-0.507,0.464-1.005,0.451-1.493-0.037c-0.281-0.282-0.559-0.577-0.83-0.886c0.136-0.174,0.249-0.336,0.339-0.487l0.014,0.014
		c0.266,0.353,0.526,0.657,0.784,0.913c0.281,0.281,0.581,0.285,0.898,0.01c0.495-0.427,1.373-1.255,2.635-2.485L18.97,9.686
		c-0.434,0.164-0.835,0.288-1.207,0.371C17.739,9.915,17.688,9.75,17.614,9.565z M17.776,8.522l-1.043-1.043l-1.127,1.126
		l1.044,1.043L17.776,8.522z M17.708,10.289l0.491,0.075c-0.062,0.748-0.14,1.373-0.232,1.873l-0.584-0.103
		C17.521,11.556,17.63,10.94,17.708,10.289z"/>
</g>
</svg>
